<svg width="100" height="100" viewBox="0 0 100 100" fill="none" xmlns="http://www.w3.org/2000/svg">
<path d="M50 0C40.1109 0 30.444 2.93245 22.2215 8.42652C13.9991 13.9206 7.59043 21.7295 3.80605 30.8658C0.0216644 40.0021 -0.968502 50.0555 0.960758 59.7545C2.89002 69.4536 7.65206 78.3627 14.6447 85.3553C21.6373 92.3479 30.5464 97.11 40.2455 99.0392C49.9445 100.968 59.9979 99.9783 69.1342 96.194C78.2705 92.4096 86.0794 86.001 91.5735 77.7785C97.0676 69.556 100 59.8891 100 50C100 36.7392 94.7322 24.0215 85.3553 14.6447C75.9785 5.26784 63.2608 0 50 0ZM75.9409 39.5773L44.1227 71.3954C43.2703 72.2476 42.1144 72.7263 40.9091 72.7263C39.7038 72.7263 38.5479 72.2476 37.6955 71.3954L24.0591 57.7591C23.2311 56.9018 22.773 55.7536 22.7833 54.5618C22.7937 53.37 23.2717 52.2299 24.1145 51.3872C24.9572 50.5444 26.0973 50.0664 27.2891 50.056C28.4809 50.0457 29.6291 50.5038 30.4864 51.3318L40.9091 61.7545L69.5136 33.15C70.3709 32.322 71.5191 31.8638 72.7109 31.8742C73.9027 31.8846 75.0428 32.3626 75.8856 33.2054C76.7283 34.0481 77.2064 35.1882 77.2167 36.38C77.2271 37.5718 76.7689 38.72 75.9409 39.5773Z" fill="#1D9200"/>
</svg>
