<svg width="20" height="20" viewBox="0 0 20 20" fill="none" xmlns="http://www.w3.org/2000/svg">
<path d="M20 10.2298C20 9.55009 19.9437 8.86666 19.8238 8.19794H10.2013V12.0486H15.7116C15.483 13.2905 14.7483 14.3892 13.6724 15.0873V17.5858H16.9599C18.8904 15.8442 20 13.2722 20 10.2298Z" fill="#4285F4"/>
<path d="M10.2011 20C12.9526 20 15.2729 19.1145 16.9635 17.586L13.676 15.0874C12.7614 15.6974 11.5806 16.0428 10.2049 16.0428C7.54343 16.0428 5.28682 14.2828 4.47714 11.9165H1.08472V14.4922C2.81654 17.8689 6.3439 20 10.2011 20Z" fill="#34A853"/>
<path d="M4.47381 11.9165C4.04648 10.6746 4.04648 9.32976 4.47381 8.08784V5.51215H1.08518C-0.361728 8.3377 -0.361728 11.6666 1.08518 14.4922L4.47381 11.9165Z" fill="#FBBC04"/>
<path d="M10.2011 3.95791C11.6556 3.93587 13.0613 4.47232 14.1146 5.45704L17.0272 2.60209C15.1829 0.904556 12.7351 -0.0287207 10.2011 0.000673865C6.3439 0.000673865 2.81654 2.13178 1.08472 5.51215L4.47339 8.08785C5.27932 5.71791 7.53968 3.95791 10.2011 3.95791Z" fill="#EA4335"/>
</svg>
