<svg width="100" height="100" viewBox="0 0 100 100" fill="none" xmlns="http://www.w3.org/2000/svg">
<g clip-path="url(#clip0_13_456)">
<path fill-rule="evenodd" clip-rule="evenodd" d="M50 100C77.6142 100 100 77.6142 100 50C100 22.3858 77.6142 0 50 0C22.3858 0 0 22.3858 0 50C0 77.6142 22.3858 100 50 100Z" fill="#1D9200"/>
<path fill-rule="evenodd" clip-rule="evenodd" d="M25 36.3366V64.6495C25 66.1898 26.1274 67.4382 27.6806 67.4382H71.8677C73.4194 67.4382 74.5484 66.1753 74.5484 64.6495V36.3366C74.5484 34.6462 73.5387 33.3333 71.8677 33.3333H27.6806C25.9452 33.3333 25 34.6785 25 36.3366ZM29.0742 38.8027C29.0742 38.1204 29.4871 37.7301 30.1468 37.7301C30.5548 37.7301 46.6113 47.9043 47.5839 48.5011L50.0968 50.064C50.8936 49.5301 51.6935 49.0737 52.5194 48.5204C54.2048 47.443 69.2016 37.7301 69.6145 37.7301C70.2758 37.7301 70.6871 38.1204 70.6871 38.8027C70.6871 39.5253 69.2952 40.243 68.3887 40.7962C62.6936 44.2672 57 48.0511 51.3613 51.6511C51.0323 51.8737 50.3952 52.3495 49.9177 52.2769C49.3855 52.1946 33.0468 41.6979 30.0742 39.9495C29.6274 39.6866 29.0742 39.4462 29.0742 38.8027Z" fill="white"/>
</g>
<defs>
<clipPath id="clip0_13_456">
<rect width="100" height="100" fill="white"/>
</clipPath>
</defs>
</svg>
